<svg width="1200" height="800" viewBox="0 0 1200 800" fill="none" xmlns="http://www.w3.org/2000/svg">
  <defs>
    <linearGradient id="bg" x1="0" y1="0" x2="1200" y2="800" gradientUnits="userSpaceOnUse">
      <stop offset="0" stop-color="#F5F3FF"/>
      <stop offset="1" stop-color="#DDD6FE"/>
    </linearGradient>
    <linearGradient id="probe" x1="360" y1="230" x2="760" y2="450" gradientUnits="userSpaceOnUse">
      <stop offset="0" stop-color="#8B5CF6"/>
      <stop offset="1" stop-color="#6D28D9"/>
    </linearGradient>
  </defs>
  <rect width="1200" height="800" fill="url(#bg)"/>
  <rect x="120" y="120" width="560" height="420" rx="36" fill="#FFFFFF" fill-opacity="0.9" stroke="#C4B5FD" stroke-width="8"/>
  <path d="M180 220H620" stroke="#C4B5FD" stroke-width="8" stroke-linecap="round"/>
  <path d="M180 280H560" stroke="#DDD6FE" stroke-width="8" stroke-linecap="round"/>
  <path d="M180 340H520" stroke="#DDD6FE" stroke-width="8" stroke-linecap="round"/>
  <path d="M180 400H480" stroke="#DDD6FE" stroke-width="8" stroke-linecap="round"/>
  <rect x="690" y="260" width="320" height="90" rx="20" transform="rotate(-18 690 260)" fill="url(#probe)"/>
  <rect x="950" y="160" width="140" height="90" rx="20" transform="rotate(-18 950 160)" fill="#A78BFA"/>
  <path d="M735 425L930 360" stroke="#5B21B6" stroke-width="8" stroke-linecap="round"/>
  <circle cx="930" cy="360" r="18" fill="#7C3AED"/>
  <circle cx="980" cy="520" r="80" fill="#8B5CF6" fill-opacity="0.18"/>
  <path d="M950 520H1010" stroke="#7C3AED" stroke-width="12" stroke-linecap="round"/>
  <path d="M980 490V550" stroke="#7C3AED" stroke-width="12" stroke-linecap="round"/>
  <circle cx="260" cy="620" r="42" fill="#A78BFA" fill-opacity="0.3"/>
</svg>
