<svg width="256" height="256" viewBox="0 0 256 256" fill="none" xmlns="http://www.w3.org/2000/svg">
  <defs>
    <linearGradient id="bg" x1="28" y1="18" x2="234" y2="238" gradientUnits="userSpaceOnUse">
      <stop offset="0" stop-color="#DDD6FE"/>
      <stop offset="0.5" stop-color="#A78BFA"/>
      <stop offset="1" stop-color="#6D28D9"/>
    </linearGradient>
    <linearGradient id="pulse" x1="62" y1="130" x2="194" y2="130" gradientUnits="userSpaceOnUse">
      <stop offset="0" stop-color="#FFFFFF"/>
      <stop offset="1" stop-color="#F5F3FF"/>
    </linearGradient>
  </defs>

  <rect x="20" y="20" width="216" height="216" rx="56" fill="url(#bg)"/>
  <rect x="30" y="30" width="196" height="196" rx="48" stroke="#EDE9FE" stroke-opacity="0.55" stroke-width="4"/>

  <!-- Shield -->
  <path d="M128 58L188 83V126C188 165 162 198 128 208C94 198 68 165 68 126V83L128 58Z" fill="#FFFFFF" fill-opacity="0.16"/>
  <path d="M128 66L180 88V125C180 160 158 190 128 199C98 190 76 160 76 125V88L128 66Z" stroke="#F5F3FF" stroke-width="4"/>

  <!-- Medical cross -->
  <rect x="114" y="88" width="28" height="72" rx="10" fill="#FFFFFF"/>
  <rect x="92" y="110" width="72" height="28" rx="10" fill="#FFFFFF"/>

  <!-- ECG pulse -->
  <path d="M62 162H94L107 144L121 176L136 151L146 162H194" stroke="url(#pulse)" stroke-width="8" stroke-linecap="round" stroke-linejoin="round"/>
</svg>
